<?xml version="1.0" standalone="no"?>
<!DOCTYPE svg PUBLIC "-//W3C//DTD SVG 20010904//EN"
 "http://www.w3.org/TR/2001/REC-SVG-20010904/DTD/svg10.dtd">
<svg version="1.0" xmlns="http://www.w3.org/2000/svg"
 width="160.000000pt" height="160.000000pt" viewBox="0 0 160.000000 160.000000"
 preserveAspectRatio="xMidYMid meet">
<metadata>
Created by potrace 1.11, written by Peter Selinger 2001-2013
</metadata>
<g transform="translate(0.000000,160.000000) scale(0.100000,-0.100000)"
fill="#000000" stroke="none">
<path d="M285 1497 c-91 -30 -142 -110 -121 -189 6 -22 4 -27 -14 -33 -91 -29
-143 -166 -118 -308 9 -48 55 -159 94 -225 24 -42 143 -212 161 -230 7 -8 26
-30 41 -50 49 -67 202 -211 289 -274 76 -54 273 -165 273 -153 0 2 19 -2 43
-9 89 -26 189 -3 252 58 23 23 44 48 47 56 4 13 10 12 44 -3 21 -10 53 -19 69
-20 113 -10 210 140 155 242 -7 13 -13 55 -14 92 -1 59 -5 72 -32 106 -17 21
-88 79 -157 128 -260 186 -342 270 -582 601 -64 88 -123 129 -187 130 -41 0
-53 5 -80 33 -49 50 -107 67 -163 48z"/>
</g>
</svg>
